<?xml version="1.0" encoding="utf-8"?><!--32-->
<svg width="800px" height="800px" viewBox="-3.5 -4 40 40" xmlns="http://www.w3.org/2000/svg">
    <defs>
        <style>.cls-1{fill:none;}</style>
    </defs>
    <title>color palette</title>
    <!-- Circles with variable stroke widths -->
    <circle cx="10" cy="12" r="2" fill="#000000" stroke="#000000" stroke-width="0.6"/>
    <circle cx="16" cy="9" r="2" fill="#000000" stroke="#000000" stroke-width="0.4"/>
    <circle cx="22" cy="12" r="2" fill="#000000" stroke="#000000" stroke-width="0.5"/>
    <circle cx="23" cy="18" r="2" fill="#000000" stroke="#000000" stroke-width="0.7"/>
    <circle cx="19" cy="23" r="2" fill="#000000" stroke="#000000" stroke-width="0.3"/>

    <!-- Main path with controlled stroke -->
        <path d="
    M16.54,2A14,14,0,0,0,2,16a4.82,4.82,0,0,0,6.09,4.65l1.12-.31A3,
    3,0,0,1,13,23.24V27a3,3,0,0,0,3,3A14,14,0,0,0,30,15.46,14.05,14.05,0,0,0,
    16.54,2Zm8.11"
          fill="none"
          stroke="#000000"
          stroke-width="1.3" />
    <rect class="cls-1" width="32" height="32"/>
</svg>